# xmcd
# Copyright (C) 1995-1998 Ti Kan
#
# Track frame offsets:
#       150
#       19196
#       37981
#       60781
#
# Disc length: 1016 seconds
#
# Revision: 3
# Processed by: cddbd v1.5.2PL0 Copyright (c) Steve Scherf et al.
# Submitted via: CD-Import v1.0
#
DISCID=2203f604
DTITLE=Cake - 
DYEAR=1900
DGENRE=
TTITLE0=Hirishima
TTITLE1=Gig Vo Arosa
TTITLE2=One Night In Bangkok
TTITLE3=Mexico
EXTD=
EXTT0=
EXTT1=
EXTT2=
EXTT3=
PLAYORDER=
